# xmcd
#
# Track frame offsets: 
#        150
#        14169
#        27337
#        39896
#        51841
#        63989
#        75990
#        86263
#        101660
#        117080
#
# Disc length: 1737 seconds
#
# Revision: 2
# Processed by: cddbd v1.5.2PL0 Copyright (c) Steve Scherf et al.
# Submitted via: ExactAudioCopy v0.99pb4
#
DISCID=7006c70a
DTITLE=Various Artist - Sisters Of Soul
DYEAR=1999
DGENRE=Soul
TTITLE0=Freda Payne - Band Of Gold
TTITLE1=Tina Turner - Nutbush City Limits
TTITLE2=Mary Wells - My Guy
TTITLE3=Martha Reeves - Dancing In The Streets
TTITLE4=Wanda Jackson - Right Or Wrong
TTITLE5=The Shirelles - Will You Still Love Me Tomorrow
TTITLE6=The Chiffons - Sweet Talking Guy
TTITLE7=Freda Payne - Bring The Boys Home
TTITLE8=Martha Reeves - I Heard It Through The Grapevine
TTITLE9=Mary Wells - Two Lovers
EXTD=
EXTT0=
EXTT1=
EXTT2=
EXTT3=
EXTT4=
EXTT5=
EXTT6=
EXTT7=
EXTT8=
EXTT9=
PLAYORDER=
